<svg xmlns="http://www.w3.org/2000/svg" viewBox="0 0 100 100">
  <defs>
    <clipPath id="clip-circle-2w">
      <circle cx="50" cy="50" r="50"/>
    </clipPath>
  </defs>
  <g clip-path="url(#clip-circle-2w)">
    <rect x="0" y="0" width="50" height="100" fill="#CAC5C0"/>
    <rect x="50" y="0" width="50" height="100" fill="#fffef0"/>
  </g>
  <path d="M42.913 64.184l-4.296 15.042H2.952V76.01c1.734-2.005 5.532-6.05 11.395-12.134A250.367 250.367 0 0 0 24.84 52.253c1.732-2.004 3.067-3.736 3.996-5.187 2.066-3.11 3.099-6.29 3.099-9.543 0-3.177-.949-5.978-2.847-8.396-1.897-2.422-4.346-3.633-7.346-3.633-6.46 0-11.524 4.53-15.19 13.587l-3.2-1.244c4.332-12.718 11.158-19.08 20.487-19.08 4.598 0 8.513 1.625 11.746 4.875 3.235 3.252 4.853 7.262 4.853 12.032 0 6.084-3.363 12.03-10.091 17.837l-6.996 6.013c-4.466 3.874-8.165 7.5-11.092 10.886-.204.207-.602.692-1.2 1.451h18.588c2.865 0 5.03-.586 6.496-1.765 1.263-1.037 2.5-3.008 3.698-5.913h3.093z" fill="#0D0F0F"/>
  <g fill="#0D0F0F">
    <circle cx="70" cy="50" r="8"/>
    <rect x="69" y="34" width="2" height="7" rx="1"/>
    <rect x="69" y="59" width="2" height="7" rx="1"/>
    <rect x="79" y="49" width="7" height="2" rx="1"/>
    <rect x="54" y="49" width="7" height="2" rx="1"/>
    <rect x="76.4" y="38.6" width="2" height="6" rx="1" transform="rotate(45 77.4 41.6)"/>
    <rect x="60.6" y="54.4" width="2" height="6" rx="1" transform="rotate(45 61.6 57.4)"/>
    <rect x="60.6" y="38.6" width="2" height="6" rx="1" transform="rotate(-45 61.6 41.6)"/>
    <rect x="76.4" y="54.4" width="2" height="6" rx="1" transform="rotate(-45 77.4 57.4)"/>
  </g>
</svg>
